<?xml version="1.0" encoding="utf-8"?><svg width="auto" height="4270" style="overflow:visible " version="1.1" xmlns="http://www.w3.org/2000/svg"><rect x="20" y="20" width="200" height="40" style="fill:white;stroke:black;stroke-width:1" /><text x="30" y="30" font-size="10" style="fill:blue">rutas</text><rect x="240" y="20" width="200" height="40" style="fill:white;stroke:black;stroke-width:1" /><text x="250" y="30" font-size="10" style="fill:blue">ruta</text><path d="M220 40 C240 40 220 40 240 40" style="fill:transparent;stroke:black" /><text x="250" y="40" font-size="8" style="fill:black">nombre: Ruta en coche 1</text><text x="250" y="50" font-size="8" style="fill:black">tipo: Ruta en coche</text><rect x="460" y="20" width="200" height="40" style="fill:white;stroke:black;stroke-width:1" /><text x="470" y="30" font-size="10" style="fill:blue">medioTransporte</text><path d="M440 40 C460 40 440 40 460 40" style="fill:transparent;stroke:black" /><rect x="526" y="20" width="137" height="40" style="fill:green;stroke:black;stroke-width:1" /><text x="536" y="30" font-size="8" style="fill:white"> coche </text><rect x="460" y="70" width="200" height="40" style="fill:white;stroke:black;stroke-width:1" /><text x="470" y="80" font-size="10" style="fill:blue">inicio</text><path d="M440 40 C460 40 440 90 460 90" style="fill:transparent;stroke:black" /><rect x="680" y="70" width="200" height="40" style="fill:white;stroke:black;stroke-width:1" /><text x="690" y="80" font-size="10" style="fill:blue">fecha</text><path d="M660 90 C680 90 660 90 680 90" style="fill:transparent;stroke:black" /><rect x="746" y="70" width="137" height="40" style="fill:green;stroke:black;stroke-width:1" /><text x="756" y="80" font-size="8" style="fill:white">2023-10-23</text><rect x="680" y="120" width="200" height="40" style="fill:white;stroke:black;stroke-width:1" /><text x="690" y="130" font-size="10" style="fill:blue">hora</text><path d="M660 90 C680 90 660 140 680 140" style="fill:transparent;stroke:black" /><rect x="746" y="120" width="137" height="40" style="fill:green;stroke:black;stroke-width:1" /><text x="756" y="130" font-size="8" style="fill:white">14:00</text><rect x="680" y="170" width="200" height="40" style="fill:white;stroke:black;stroke-width:1" /><text x="690" y="180" font-size="10" style="fill:blue">lugar</text><path d="M660 90 C680 90 660 190 680 190" style="fill:transparent;stroke:black" /><rect x="746" y="170" width="137" height="40" style="fill:green;stroke:black;stroke-width:1" /><text x="756" y="180" font-size="8" style="fill:white"> Hotel Restaurant LE NOYAU </text><rect x="680" y="220" width="200" height="40" style="fill:white;stroke:black;stroke-width:1" /><text x="690" y="230" font-size="10" style="fill:blue">direccion</text><path d="M660 90 C680 90 660 240 680 240" style="fill:transparent;stroke:black" /><rect x="746" y="220" width="137" height="40" style="fill:green;stroke:black;stroke-width:1" /><text x="756" y="230" font-size="8" style="fill:white">
                Villa Maxfrancky Ambataria Fenerive Est Ambataria fenerive est Madagascar, Fenerive est 509, Madagascar
            </text><rect x="680" y="270" width="200" height="40" style="fill:white;stroke:black;stroke-width:1" /><text x="690" y="280" font-size="10" style="fill:blue">coordenadas</text><path d="M660 90 C680 90 660 290 680 290" style="fill:transparent;stroke:black" /><text x="690" y="290" font-size="8" style="fill:black">long: -17.382735086</text><text x="690" y="300" font-size="8" style="fill:black">lat: 49.4133362</text><text x="690" y="310" font-size="8" style="fill:black">alt: 100</text><rect x="460" y="370" width="200" height="40" style="fill:white;stroke:black;stroke-width:1" /><text x="470" y="380" font-size="10" style="fill:blue">duracion</text><path d="M440 40 C460 40 440 390 460 390" style="fill:transparent;stroke:black" /><rect x="526" y="370" width="137" height="40" style="fill:green;stroke:black;stroke-width:1" /><text x="536" y="380" font-size="8" style="fill:white"> 4 horas </text><rect x="460" y="420" width="200" height="40" style="fill:white;stroke:black;stroke-width:1" /><text x="470" y="430" font-size="10" style="fill:blue">agencia</text><path d="M440 40 C460 40 440 440 460 440" style="fill:transparent;stroke:black" /><rect x="526" y="420" width="137" height="40" style="fill:green;stroke:black;stroke-width:1" /><text x="536" y="430" font-size="8" style="fill:white">Viajes Madagascar S.L.</text><rect x="460" y="470" width="200" height="40" style="fill:white;stroke:black;stroke-width:1" /><text x="470" y="480" font-size="10" style="fill:blue">descripcion</text><path d="M440 40 C460 40 440 490 460 490" style="fill:transparent;stroke:black" /><rect x="526" y="470" width="137" height="40" style="fill:green;stroke:black;stroke-width:1" /><text x="536" y="480" font-size="8" style="fill:white">
            Una ruta en coche por la costa de Madagascar especialmente apropiada para grupos y familias con personas mayores o niños
        </text><rect x="460" y="520" width="200" height="40" style="fill:white;stroke:black;stroke-width:1" /><text x="470" y="530" font-size="10" style="fill:blue">personasAdecuadas</text><path d="M440 40 C460 40 440 540 460 540" style="fill:transparent;stroke:black" /><rect x="526" y="520" width="137" height="40" style="fill:green;stroke:black;stroke-width:1" /><text x="536" y="530" font-size="8" style="fill:white">
            Una ruta apta para todos los públicos
        </text><rect x="460" y="570" width="200" height="40" style="fill:white;stroke:black;stroke-width:1" /><text x="470" y="580" font-size="10" style="fill:blue">referencias</text><path d="M440 40 C460 40 440 590 460 590" style="fill:transparent;stroke:black" /><rect x="680" y="570" width="200" height="40" style="fill:white;stroke:black;stroke-width:1" /><text x="690" y="580" font-size="10" style="fill:blue">referencia</text><path d="M660 590 C680 590 660 590 680 590" style="fill:transparent;stroke:black" /><rect x="746" y="570" width="137" height="40" style="fill:green;stroke:black;stroke-width:1" /><text x="756" y="580" font-size="8" style="fill:white">referencia 1</text><rect x="680" y="620" width="200" height="40" style="fill:white;stroke:black;stroke-width:1" /><text x="690" y="630" font-size="10" style="fill:blue">referencia</text><path d="M660 590 C680 590 660 640 680 640" style="fill:transparent;stroke:black" /><rect x="746" y="620" width="137" height="40" style="fill:green;stroke:black;stroke-width:1" /><text x="756" y="630" font-size="8" style="fill:white">referencia 2</text><rect x="680" y="670" width="200" height="40" style="fill:white;stroke:black;stroke-width:1" /><text x="690" y="680" font-size="10" style="fill:blue">referencia</text><path d="M660 590 C680 590 660 690 680 690" style="fill:transparent;stroke:black" /><rect x="746" y="670" width="137" height="40" style="fill:green;stroke:black;stroke-width:1" /><text x="756" y="680" font-size="8" style="fill:white">referencia 3</text><rect x="460" y="770" width="200" height="40" style="fill:white;stroke:black;stroke-width:1" /><text x="470" y="780" font-size="10" style="fill:blue">recomendacion</text><path d="M440 40 C460 40 440 790 460 790" style="fill:transparent;stroke:black" /><text x="470" y="790" font-size="8" style="fill:black">nivel: 7</text><rect x="460" y="820" width="200" height="40" style="fill:white;stroke:black;stroke-width:1" /><text x="470" y="830" font-size="10" style="fill:blue">hitos</text><path d="M440 40 C460 40 440 840 460 840" style="fill:transparent;stroke:black" /><rect x="680" y="820" width="200" height="40" style="fill:white;stroke:black;stroke-width:1" /><text x="690" y="830" font-size="10" style="fill:blue">hito</text><path d="M660 840 C680 840 660 840 680 840" style="fill:transparent;stroke:black" /><text x="690" y="840" font-size="8" style="fill:black">nombre: Hito 1</text><rect x="900" y="820" width="200" height="40" style="fill:white;stroke:black;stroke-width:1" /><text x="910" y="830" font-size="10" style="fill:blue">descripcion</text><path d="M880 840 C900 840 880 840 900 840" style="fill:transparent;stroke:black" /><rect x="900" y="870" width="200" height="40" style="fill:white;stroke:black;stroke-width:1" /><text x="910" y="880" font-size="10" style="fill:blue">coordenadas</text><path d="M880 840 C900 840 880 890 900 890" style="fill:transparent;stroke:black" /><text x="910" y="890" font-size="8" style="fill:black">long: </text><text x="910" y="900" font-size="8" style="fill:black">lat: </text><text x="910" y="910" font-size="8" style="fill:black">alt: </text><rect x="900" y="920" width="200" height="40" style="fill:white;stroke:black;stroke-width:1" /><text x="910" y="930" font-size="10" style="fill:blue">hitoAnterior</text><path d="M880 840 C900 840 880 940 900 940" style="fill:transparent;stroke:black" /><text x="910" y="940" font-size="8" style="fill:black">dist: 0</text><rect x="900" y="970" width="200" height="40" style="fill:white;stroke:black;stroke-width:1" /><text x="910" y="980" font-size="10" style="fill:blue">galeriaFotos</text><path d="M880 840 C900 840 880 990 900 990" style="fill:transparent;stroke:black" /><rect x="1120" y="970" width="200" height="40" style="fill:white;stroke:black;stroke-width:1" /><text x="1130" y="980" font-size="10" style="fill:blue">foto</text><path d="M1100 990 C1120 990 1100 990 1120 990" style="fill:transparent;stroke:black" /><rect x="1186" y="970" width="137" height="40" style="fill:green;stroke:black;stroke-width:1" /><text x="1196" y="980" font-size="8" style="fill:white">Foto1.png</text><rect x="1120" y="1020" width="200" height="40" style="fill:white;stroke:black;stroke-width:1" /><text x="1130" y="1030" font-size="10" style="fill:blue">foto</text><path d="M1100 990 C1120 990 1100 1040 1120 1040" style="fill:transparent;stroke:black" /><rect x="1186" y="1020" width="137" height="40" style="fill:green;stroke:black;stroke-width:1" /><text x="1196" y="1030" font-size="8" style="fill:white">Foto2.png</text><rect x="1120" y="1070" width="200" height="40" style="fill:white;stroke:black;stroke-width:1" /><text x="1130" y="1080" font-size="10" style="fill:blue">foto</text><path d="M1100 990 C1120 990 1100 1090 1120 1090" style="fill:transparent;stroke:black" /><rect x="1186" y="1070" width="137" height="40" style="fill:green;stroke:black;stroke-width:1" /><text x="1196" y="1080" font-size="8" style="fill:white">Foto3.png</text><rect x="900" y="1170" width="200" height="40" style="fill:white;stroke:black;stroke-width:1" /><text x="910" y="1180" font-size="10" style="fill:blue">galeriaVideos</text><path d="M880 840 C900 840 880 1190 900 1190" style="fill:transparent;stroke:black" /><rect x="1120" y="1170" width="200" height="40" style="fill:white;stroke:black;stroke-width:1" /><text x="1130" y="1180" font-size="10" style="fill:blue">video</text><path d="M1100 1190 C1120 1190 1100 1190 1120 1190" style="fill:transparent;stroke:black" /><rect x="1186" y="1170" width="137" height="40" style="fill:green;stroke:black;stroke-width:1" /><text x="1196" y="1180" font-size="8" style="fill:white"> video1.mp4</text><rect x="240" y="1420" width="200" height="40" style="fill:white;stroke:black;stroke-width:1" /><text x="250" y="1430" font-size="10" style="fill:blue">ruta</text><path d="M220 40 C240 40 220 1440 240 1440" style="fill:transparent;stroke:black" /><text x="250" y="1440" font-size="8" style="fill:black">nombre: Ruta en coche 1</text><text x="250" y="1450" font-size="8" style="fill:black">tipo: Ruta en coche</text><rect x="460" y="1420" width="200" height="40" style="fill:white;stroke:black;stroke-width:1" /><text x="470" y="1430" font-size="10" style="fill:blue">medioTransporte</text><path d="M440 1440 C460 1440 440 1440 460 1440" style="fill:transparent;stroke:black" /><rect x="526" y="1420" width="137" height="40" style="fill:green;stroke:black;stroke-width:1" /><text x="536" y="1430" font-size="8" style="fill:white"> coche </text><rect x="460" y="1470" width="200" height="40" style="fill:white;stroke:black;stroke-width:1" /><text x="470" y="1480" font-size="10" style="fill:blue">inicio</text><path d="M440 1440 C460 1440 440 1490 460 1490" style="fill:transparent;stroke:black" /><rect x="680" y="1470" width="200" height="40" style="fill:white;stroke:black;stroke-width:1" /><text x="690" y="1480" font-size="10" style="fill:blue">fecha</text><path d="M660 1490 C680 1490 660 1490 680 1490" style="fill:transparent;stroke:black" /><rect x="746" y="1470" width="137" height="40" style="fill:green;stroke:black;stroke-width:1" /><text x="756" y="1480" font-size="8" style="fill:white">2023-10-23</text><rect x="680" y="1520" width="200" height="40" style="fill:white;stroke:black;stroke-width:1" /><text x="690" y="1530" font-size="10" style="fill:blue">hora</text><path d="M660 1490 C680 1490 660 1540 680 1540" style="fill:transparent;stroke:black" /><rect x="746" y="1520" width="137" height="40" style="fill:green;stroke:black;stroke-width:1" /><text x="756" y="1530" font-size="8" style="fill:white">14:00</text><rect x="680" y="1570" width="200" height="40" style="fill:white;stroke:black;stroke-width:1" /><text x="690" y="1580" font-size="10" style="fill:blue">lugar</text><path d="M660 1490 C680 1490 660 1590 680 1590" style="fill:transparent;stroke:black" /><rect x="746" y="1570" width="137" height="40" style="fill:green;stroke:black;stroke-width:1" /><text x="756" y="1580" font-size="8" style="fill:white"> Hotel Restaurant LE NOYAU </text><rect x="680" y="1620" width="200" height="40" style="fill:white;stroke:black;stroke-width:1" /><text x="690" y="1630" font-size="10" style="fill:blue">direccion</text><path d="M660 1490 C680 1490 660 1640 680 1640" style="fill:transparent;stroke:black" /><rect x="746" y="1620" width="137" height="40" style="fill:green;stroke:black;stroke-width:1" /><text x="756" y="1630" font-size="8" style="fill:white">
                Villa Maxfrancky Ambataria Fenerive Est Ambataria fenerive est Madagascar, Fenerive est 509, Madagascar
            </text><rect x="680" y="1670" width="200" height="40" style="fill:white;stroke:black;stroke-width:1" /><text x="690" y="1680" font-size="10" style="fill:blue">coordenadas</text><path d="M660 1490 C680 1490 660 1690 680 1690" style="fill:transparent;stroke:black" /><text x="690" y="1690" font-size="8" style="fill:black">long: -17.382735086</text><text x="690" y="1700" font-size="8" style="fill:black">lat: 49.4133362</text><text x="690" y="1710" font-size="8" style="fill:black">alt: 100</text><rect x="460" y="1770" width="200" height="40" style="fill:white;stroke:black;stroke-width:1" /><text x="470" y="1780" font-size="10" style="fill:blue">duracion</text><path d="M440 1440 C460 1440 440 1790 460 1790" style="fill:transparent;stroke:black" /><rect x="526" y="1770" width="137" height="40" style="fill:green;stroke:black;stroke-width:1" /><text x="536" y="1780" font-size="8" style="fill:white"> 4 horas </text><rect x="460" y="1820" width="200" height="40" style="fill:white;stroke:black;stroke-width:1" /><text x="470" y="1830" font-size="10" style="fill:blue">agencia</text><path d="M440 1440 C460 1440 440 1840 460 1840" style="fill:transparent;stroke:black" /><rect x="526" y="1820" width="137" height="40" style="fill:green;stroke:black;stroke-width:1" /><text x="536" y="1830" font-size="8" style="fill:white">Viajes Madagascar S.L.</text><rect x="460" y="1870" width="200" height="40" style="fill:white;stroke:black;stroke-width:1" /><text x="470" y="1880" font-size="10" style="fill:blue">descripcion</text><path d="M440 1440 C460 1440 440 1890 460 1890" style="fill:transparent;stroke:black" /><rect x="526" y="1870" width="137" height="40" style="fill:green;stroke:black;stroke-width:1" /><text x="536" y="1880" font-size="8" style="fill:white">
            Una ruta en coche por la costa de Madagascar especialmente apropiada para grupos y familias con personas mayores o niños
        </text><rect x="460" y="1920" width="200" height="40" style="fill:white;stroke:black;stroke-width:1" /><text x="470" y="1930" font-size="10" style="fill:blue">personasAdecuadas</text><path d="M440 1440 C460 1440 440 1940 460 1940" style="fill:transparent;stroke:black" /><rect x="526" y="1920" width="137" height="40" style="fill:green;stroke:black;stroke-width:1" /><text x="536" y="1930" font-size="8" style="fill:white">
            Una ruta apta para todos los públicos
        </text><rect x="460" y="1970" width="200" height="40" style="fill:white;stroke:black;stroke-width:1" /><text x="470" y="1980" font-size="10" style="fill:blue">referencias</text><path d="M440 1440 C460 1440 440 1990 460 1990" style="fill:transparent;stroke:black" /><rect x="680" y="1970" width="200" height="40" style="fill:white;stroke:black;stroke-width:1" /><text x="690" y="1980" font-size="10" style="fill:blue">referencia</text><path d="M660 1990 C680 1990 660 1990 680 1990" style="fill:transparent;stroke:black" /><rect x="746" y="1970" width="137" height="40" style="fill:green;stroke:black;stroke-width:1" /><text x="756" y="1980" font-size="8" style="fill:white">referencia 1</text><rect x="680" y="2020" width="200" height="40" style="fill:white;stroke:black;stroke-width:1" /><text x="690" y="2030" font-size="10" style="fill:blue">referencia</text><path d="M660 1990 C680 1990 660 2040 680 2040" style="fill:transparent;stroke:black" /><rect x="746" y="2020" width="137" height="40" style="fill:green;stroke:black;stroke-width:1" /><text x="756" y="2030" font-size="8" style="fill:white">referencia 2</text><rect x="680" y="2070" width="200" height="40" style="fill:white;stroke:black;stroke-width:1" /><text x="690" y="2080" font-size="10" style="fill:blue">referencia</text><path d="M660 1990 C680 1990 660 2090 680 2090" style="fill:transparent;stroke:black" /><rect x="746" y="2070" width="137" height="40" style="fill:green;stroke:black;stroke-width:1" /><text x="756" y="2080" font-size="8" style="fill:white">referencia 3</text><rect x="460" y="2170" width="200" height="40" style="fill:white;stroke:black;stroke-width:1" /><text x="470" y="2180" font-size="10" style="fill:blue">recomendacion</text><path d="M440 1440 C460 1440 440 2190 460 2190" style="fill:transparent;stroke:black" /><text x="470" y="2190" font-size="8" style="fill:black">nivel: 7</text><rect x="460" y="2220" width="200" height="40" style="fill:white;stroke:black;stroke-width:1" /><text x="470" y="2230" font-size="10" style="fill:blue">hitos</text><path d="M440 1440 C460 1440 440 2240 460 2240" style="fill:transparent;stroke:black" /><rect x="680" y="2220" width="200" height="40" style="fill:white;stroke:black;stroke-width:1" /><text x="690" y="2230" font-size="10" style="fill:blue">hito</text><path d="M660 2240 C680 2240 660 2240 680 2240" style="fill:transparent;stroke:black" /><text x="690" y="2240" font-size="8" style="fill:black">nombre: Hito 1</text><rect x="900" y="2220" width="200" height="40" style="fill:white;stroke:black;stroke-width:1" /><text x="910" y="2230" font-size="10" style="fill:blue">descripcion</text><path d="M880 2240 C900 2240 880 2240 900 2240" style="fill:transparent;stroke:black" /><rect x="900" y="2270" width="200" height="40" style="fill:white;stroke:black;stroke-width:1" /><text x="910" y="2280" font-size="10" style="fill:blue">coordenadas</text><path d="M880 2240 C900 2240 880 2290 900 2290" style="fill:transparent;stroke:black" /><text x="910" y="2290" font-size="8" style="fill:black">long: </text><text x="910" y="2300" font-size="8" style="fill:black">lat: </text><text x="910" y="2310" font-size="8" style="fill:black">alt: </text><rect x="900" y="2320" width="200" height="40" style="fill:white;stroke:black;stroke-width:1" /><text x="910" y="2330" font-size="10" style="fill:blue">hitoAnterior</text><path d="M880 2240 C900 2240 880 2340 900 2340" style="fill:transparent;stroke:black" /><text x="910" y="2340" font-size="8" style="fill:black">dist: 0</text><rect x="900" y="2370" width="200" height="40" style="fill:white;stroke:black;stroke-width:1" /><text x="910" y="2380" font-size="10" style="fill:blue">galeriaFotos</text><path d="M880 2240 C900 2240 880 2390 900 2390" style="fill:transparent;stroke:black" /><rect x="1120" y="2370" width="200" height="40" style="fill:white;stroke:black;stroke-width:1" /><text x="1130" y="2380" font-size="10" style="fill:blue">foto</text><path d="M1100 2390 C1120 2390 1100 2390 1120 2390" style="fill:transparent;stroke:black" /><rect x="1186" y="2370" width="137" height="40" style="fill:green;stroke:black;stroke-width:1" /><text x="1196" y="2380" font-size="8" style="fill:white">Foto1.png</text><rect x="1120" y="2420" width="200" height="40" style="fill:white;stroke:black;stroke-width:1" /><text x="1130" y="2430" font-size="10" style="fill:blue">foto</text><path d="M1100 2390 C1120 2390 1100 2440 1120 2440" style="fill:transparent;stroke:black" /><rect x="1186" y="2420" width="137" height="40" style="fill:green;stroke:black;stroke-width:1" /><text x="1196" y="2430" font-size="8" style="fill:white">Foto2.png</text><rect x="1120" y="2470" width="200" height="40" style="fill:white;stroke:black;stroke-width:1" /><text x="1130" y="2480" font-size="10" style="fill:blue">foto</text><path d="M1100 2390 C1120 2390 1100 2490 1120 2490" style="fill:transparent;stroke:black" /><rect x="1186" y="2470" width="137" height="40" style="fill:green;stroke:black;stroke-width:1" /><text x="1196" y="2480" font-size="8" style="fill:white">Foto3.png</text><rect x="900" y="2570" width="200" height="40" style="fill:white;stroke:black;stroke-width:1" /><text x="910" y="2580" font-size="10" style="fill:blue">galeriaVideos</text><path d="M880 2240 C900 2240 880 2590 900 2590" style="fill:transparent;stroke:black" /><rect x="1120" y="2570" width="200" height="40" style="fill:white;stroke:black;stroke-width:1" /><text x="1130" y="2580" font-size="10" style="fill:blue">video</text><path d="M1100 2590 C1120 2590 1100 2590 1120 2590" style="fill:transparent;stroke:black" /><rect x="1186" y="2570" width="137" height="40" style="fill:green;stroke:black;stroke-width:1" /><text x="1196" y="2580" font-size="8" style="fill:white"> video1.mp4</text><rect x="240" y="2820" width="200" height="40" style="fill:white;stroke:black;stroke-width:1" /><text x="250" y="2830" font-size="10" style="fill:blue">ruta</text><path d="M220 40 C240 40 220 2840 240 2840" style="fill:transparent;stroke:black" /><text x="250" y="2840" font-size="8" style="fill:black">nombre: Ruta en coche 1</text><text x="250" y="2850" font-size="8" style="fill:black">tipo: Ruta en coche</text><rect x="460" y="2820" width="200" height="40" style="fill:white;stroke:black;stroke-width:1" /><text x="470" y="2830" font-size="10" style="fill:blue">medioTransporte</text><path d="M440 2840 C460 2840 440 2840 460 2840" style="fill:transparent;stroke:black" /><rect x="526" y="2820" width="137" height="40" style="fill:green;stroke:black;stroke-width:1" /><text x="536" y="2830" font-size="8" style="fill:white"> coche </text><rect x="460" y="2870" width="200" height="40" style="fill:white;stroke:black;stroke-width:1" /><text x="470" y="2880" font-size="10" style="fill:blue">inicio</text><path d="M440 2840 C460 2840 440 2890 460 2890" style="fill:transparent;stroke:black" /><rect x="680" y="2870" width="200" height="40" style="fill:white;stroke:black;stroke-width:1" /><text x="690" y="2880" font-size="10" style="fill:blue">fecha</text><path d="M660 2890 C680 2890 660 2890 680 2890" style="fill:transparent;stroke:black" /><rect x="746" y="2870" width="137" height="40" style="fill:green;stroke:black;stroke-width:1" /><text x="756" y="2880" font-size="8" style="fill:white">2023-10-23</text><rect x="680" y="2920" width="200" height="40" style="fill:white;stroke:black;stroke-width:1" /><text x="690" y="2930" font-size="10" style="fill:blue">hora</text><path d="M660 2890 C680 2890 660 2940 680 2940" style="fill:transparent;stroke:black" /><rect x="746" y="2920" width="137" height="40" style="fill:green;stroke:black;stroke-width:1" /><text x="756" y="2930" font-size="8" style="fill:white">14:00</text><rect x="680" y="2970" width="200" height="40" style="fill:white;stroke:black;stroke-width:1" /><text x="690" y="2980" font-size="10" style="fill:blue">lugar</text><path d="M660 2890 C680 2890 660 2990 680 2990" style="fill:transparent;stroke:black" /><rect x="746" y="2970" width="137" height="40" style="fill:green;stroke:black;stroke-width:1" /><text x="756" y="2980" font-size="8" style="fill:white"> Hotel Restaurant LE NOYAU </text><rect x="680" y="3020" width="200" height="40" style="fill:white;stroke:black;stroke-width:1" /><text x="690" y="3030" font-size="10" style="fill:blue">direccion</text><path d="M660 2890 C680 2890 660 3040 680 3040" style="fill:transparent;stroke:black" /><rect x="746" y="3020" width="137" height="40" style="fill:green;stroke:black;stroke-width:1" /><text x="756" y="3030" font-size="8" style="fill:white">
                Villa Maxfrancky Ambataria Fenerive Est Ambataria fenerive est Madagascar, Fenerive est 509, Madagascar
            </text><rect x="680" y="3070" width="200" height="40" style="fill:white;stroke:black;stroke-width:1" /><text x="690" y="3080" font-size="10" style="fill:blue">coordenadas</text><path d="M660 2890 C680 2890 660 3090 680 3090" style="fill:transparent;stroke:black" /><text x="690" y="3090" font-size="8" style="fill:black">long: -17.382735086</text><text x="690" y="3100" font-size="8" style="fill:black">lat: 49.4133362</text><text x="690" y="3110" font-size="8" style="fill:black">alt: 100</text><rect x="460" y="3170" width="200" height="40" style="fill:white;stroke:black;stroke-width:1" /><text x="470" y="3180" font-size="10" style="fill:blue">duracion</text><path d="M440 2840 C460 2840 440 3190 460 3190" style="fill:transparent;stroke:black" /><rect x="526" y="3170" width="137" height="40" style="fill:green;stroke:black;stroke-width:1" /><text x="536" y="3180" font-size="8" style="fill:white"> 4 horas </text><rect x="460" y="3220" width="200" height="40" style="fill:white;stroke:black;stroke-width:1" /><text x="470" y="3230" font-size="10" style="fill:blue">agencia</text><path d="M440 2840 C460 2840 440 3240 460 3240" style="fill:transparent;stroke:black" /><rect x="526" y="3220" width="137" height="40" style="fill:green;stroke:black;stroke-width:1" /><text x="536" y="3230" font-size="8" style="fill:white">Viajes Madagascar S.L.</text><rect x="460" y="3270" width="200" height="40" style="fill:white;stroke:black;stroke-width:1" /><text x="470" y="3280" font-size="10" style="fill:blue">descripcion</text><path d="M440 2840 C460 2840 440 3290 460 3290" style="fill:transparent;stroke:black" /><rect x="526" y="3270" width="137" height="40" style="fill:green;stroke:black;stroke-width:1" /><text x="536" y="3280" font-size="8" style="fill:white">
            Una ruta en coche por la costa de Madagascar especialmente apropiada para grupos y familias con personas mayores o niños
        </text><rect x="460" y="3320" width="200" height="40" style="fill:white;stroke:black;stroke-width:1" /><text x="470" y="3330" font-size="10" style="fill:blue">personasAdecuadas</text><path d="M440 2840 C460 2840 440 3340 460 3340" style="fill:transparent;stroke:black" /><rect x="526" y="3320" width="137" height="40" style="fill:green;stroke:black;stroke-width:1" /><text x="536" y="3330" font-size="8" style="fill:white">
            Una ruta apta para todos los públicos
        </text><rect x="460" y="3370" width="200" height="40" style="fill:white;stroke:black;stroke-width:1" /><text x="470" y="3380" font-size="10" style="fill:blue">referencias</text><path d="M440 2840 C460 2840 440 3390 460 3390" style="fill:transparent;stroke:black" /><rect x="680" y="3370" width="200" height="40" style="fill:white;stroke:black;stroke-width:1" /><text x="690" y="3380" font-size="10" style="fill:blue">referencia</text><path d="M660 3390 C680 3390 660 3390 680 3390" style="fill:transparent;stroke:black" /><rect x="746" y="3370" width="137" height="40" style="fill:green;stroke:black;stroke-width:1" /><text x="756" y="3380" font-size="8" style="fill:white">referencia 1</text><rect x="680" y="3420" width="200" height="40" style="fill:white;stroke:black;stroke-width:1" /><text x="690" y="3430" font-size="10" style="fill:blue">referencia</text><path d="M660 3390 C680 3390 660 3440 680 3440" style="fill:transparent;stroke:black" /><rect x="746" y="3420" width="137" height="40" style="fill:green;stroke:black;stroke-width:1" /><text x="756" y="3430" font-size="8" style="fill:white">referencia 2</text><rect x="680" y="3470" width="200" height="40" style="fill:white;stroke:black;stroke-width:1" /><text x="690" y="3480" font-size="10" style="fill:blue">referencia</text><path d="M660 3390 C680 3390 660 3490 680 3490" style="fill:transparent;stroke:black" /><rect x="746" y="3470" width="137" height="40" style="fill:green;stroke:black;stroke-width:1" /><text x="756" y="3480" font-size="8" style="fill:white">referencia 3</text><rect x="460" y="3570" width="200" height="40" style="fill:white;stroke:black;stroke-width:1" /><text x="470" y="3580" font-size="10" style="fill:blue">recomendacion</text><path d="M440 2840 C460 2840 440 3590 460 3590" style="fill:transparent;stroke:black" /><text x="470" y="3590" font-size="8" style="fill:black">nivel: 7</text><rect x="460" y="3620" width="200" height="40" style="fill:white;stroke:black;stroke-width:1" /><text x="470" y="3630" font-size="10" style="fill:blue">hitos</text><path d="M440 2840 C460 2840 440 3640 460 3640" style="fill:transparent;stroke:black" /><rect x="680" y="3620" width="200" height="40" style="fill:white;stroke:black;stroke-width:1" /><text x="690" y="3630" font-size="10" style="fill:blue">hito</text><path d="M660 3640 C680 3640 660 3640 680 3640" style="fill:transparent;stroke:black" /><text x="690" y="3640" font-size="8" style="fill:black">nombre: Hito 1</text><rect x="900" y="3620" width="200" height="40" style="fill:white;stroke:black;stroke-width:1" /><text x="910" y="3630" font-size="10" style="fill:blue">descripcion</text><path d="M880 3640 C900 3640 880 3640 900 3640" style="fill:transparent;stroke:black" /><rect x="900" y="3670" width="200" height="40" style="fill:white;stroke:black;stroke-width:1" /><text x="910" y="3680" font-size="10" style="fill:blue">coordenadas</text><path d="M880 3640 C900 3640 880 3690 900 3690" style="fill:transparent;stroke:black" /><text x="910" y="3690" font-size="8" style="fill:black">long: </text><text x="910" y="3700" font-size="8" style="fill:black">lat: </text><text x="910" y="3710" font-size="8" style="fill:black">alt: </text><rect x="900" y="3720" width="200" height="40" style="fill:white;stroke:black;stroke-width:1" /><text x="910" y="3730" font-size="10" style="fill:blue">hitoAnterior</text><path d="M880 3640 C900 3640 880 3740 900 3740" style="fill:transparent;stroke:black" /><text x="910" y="3740" font-size="8" style="fill:black">dist: 0</text><rect x="900" y="3770" width="200" height="40" style="fill:white;stroke:black;stroke-width:1" /><text x="910" y="3780" font-size="10" style="fill:blue">galeriaFotos</text><path d="M880 3640 C900 3640 880 3790 900 3790" style="fill:transparent;stroke:black" /><rect x="1120" y="3770" width="200" height="40" style="fill:white;stroke:black;stroke-width:1" /><text x="1130" y="3780" font-size="10" style="fill:blue">foto</text><path d="M1100 3790 C1120 3790 1100 3790 1120 3790" style="fill:transparent;stroke:black" /><rect x="1186" y="3770" width="137" height="40" style="fill:green;stroke:black;stroke-width:1" /><text x="1196" y="3780" font-size="8" style="fill:white">Foto1.png</text><rect x="1120" y="3820" width="200" height="40" style="fill:white;stroke:black;stroke-width:1" /><text x="1130" y="3830" font-size="10" style="fill:blue">foto</text><path d="M1100 3790 C1120 3790 1100 3840 1120 3840" style="fill:transparent;stroke:black" /><rect x="1186" y="3820" width="137" height="40" style="fill:green;stroke:black;stroke-width:1" /><text x="1196" y="3830" font-size="8" style="fill:white">Foto2.png</text><rect x="1120" y="3870" width="200" height="40" style="fill:white;stroke:black;stroke-width:1" /><text x="1130" y="3880" font-size="10" style="fill:blue">foto</text><path d="M1100 3790 C1120 3790 1100 3890 1120 3890" style="fill:transparent;stroke:black" /><rect x="1186" y="3870" width="137" height="40" style="fill:green;stroke:black;stroke-width:1" /><text x="1196" y="3880" font-size="8" style="fill:white">Foto3.png</text><rect x="900" y="3970" width="200" height="40" style="fill:white;stroke:black;stroke-width:1" /><text x="910" y="3980" font-size="10" style="fill:blue">galeriaVideos</text><path d="M880 3640 C900 3640 880 3990 900 3990" style="fill:transparent;stroke:black" /><rect x="1120" y="3970" width="200" height="40" style="fill:white;stroke:black;stroke-width:1" /><text x="1130" y="3980" font-size="10" style="fill:blue">video</text><path d="M1100 3990 C1120 3990 1100 3990 1120 3990" style="fill:transparent;stroke:black" /><rect x="1186" y="3970" width="137" height="40" style="fill:green;stroke:black;stroke-width:1" /><text x="1196" y="3980" font-size="8" style="fill:white"> video1.mp4</text></svg>